<svg width="20" height="16" viewBox="0 0 20 16" fill="none" xmlns="http://www.w3.org/2000/svg">
<path d="M10.2474 14.7701L10.2474 14.7701L10.2442 14.7729C9.88999 15.0767 9.32381 15.0761 8.97029 14.7685L8.97031 14.7685L8.9654 14.7643L8.85985 14.6736L8.85805 14.6721C6.31716 12.5 4.30489 10.7747 2.93029 9.16486C1.56846 7.56994 0.953412 6.22449 1.00276 4.82424C1.04829 3.61405 1.70863 2.43482 2.78997 1.73922L2.79052 1.73887C4.8624 0.404176 7.45607 1.01589 8.85802 2.56626L9.59974 3.38649L10.3415 2.56626C11.7454 1.0137 14.338 0.397377 16.4068 1.7375L16.4095 1.73922C17.4911 2.435 18.1515 3.61465 18.1967 4.82516L18.1968 4.82599C18.2502 6.22467 17.6365 7.56922 16.2726 9.16732C14.8967 10.7796 12.8826 12.5088 10.3418 14.6899C10.3411 14.6905 10.3405 14.691 10.3398 14.6915L10.2474 14.7701Z" stroke="#D9D9D9" stroke-width="2"/>
</svg>
